<?xml version="1.0" encoding="UTF-8" standalone="no"?>
<!-- Created with Inkscape (http://www.inkscape.org/) -->

<svg
   version="1.1"
   id="svg204"
   xml:space="preserve"
   width="529.5069"
   height="154.13216"
   viewBox="0 0 529.50691 154.13216"
   sodipodi:docname="Logo_of_Taiwan_People's_Party_2019.svg"
   inkscape:version="1.1.1 (3bf5ae0d25, 2021-09-20)"
   xmlns:inkscape="http://www.inkscape.org/namespaces/inkscape"
   xmlns:sodipodi="http://sodipodi.sourceforge.net/DTD/sodipodi-0.dtd"
   xmlns="http://www.w3.org/2000/svg"
   xmlns:svg="http://www.w3.org/2000/svg"><defs
     id="defs208"><clipPath
       clipPathUnits="userSpaceOnUse"
       id="clipPath220"><path
         d="M 0,768 H 1366 V 0 H 0 Z"
         id="path218" /></clipPath><clipPath
       clipPathUnits="userSpaceOnUse"
       id="clipPath226"><path
         d="M 0,0 H 1366 V 768 H 0 Z"
         id="path224" /></clipPath><clipPath
       clipPathUnits="userSpaceOnUse"
       id="clipPath250"><path
         d="M 0,768 H 1366 V 0 H 0 Z"
         id="path248" /></clipPath><clipPath
       clipPathUnits="userSpaceOnUse"
       id="clipPath256"><path
         d="M 0,0 H 1366 V 768 H 0 Z"
         id="path254" /></clipPath></defs><sodipodi:namedview
     id="namedview206"
     pagecolor="#ffffff"
     bordercolor="#666666"
     borderopacity="1.0"
     inkscape:pageshadow="2"
     inkscape:pageopacity="0.0"
     inkscape:pagecheckerboard="true"
     showgrid="false"
     inkscape:zoom="3.1328125"
     inkscape:cx="266.53367"
     inkscape:cy="42.134664"
     inkscape:window-width="3440"
     inkscape:window-height="1411"
     inkscape:window-x="1431"
     inkscape:window-y="-9"
     inkscape:window-maximized="1"
     inkscape:current-layer="g210"
     fit-margin-left="0"
     fit-margin-top="0"
     fit-margin-right="0"
     fit-margin-bottom="0"
     lock-margins="true" /><g
     id="g210"
     inkscape:groupmode="layer"
     inkscape:label="台灣民眾黨Logo視覺規範說明+(2021.08) (1)"
     transform="matrix(1.3333333,0,0,-1.3333333,-645.91318,411.83734)"><g
       id="g212" /><g
       id="g244"
       style="fill:#28c8c8;fill-opacity:1"><g
         id="g246"
         clip-path="url(#clipPath250)"
         style="fill:#28c8c8;fill-opacity:1"><g
           id="g252"
           clip-path="url(#clipPath256)"
           style="fill:#28c8c8;fill-opacity:1"><path
             d="m 809.5517,284.6223 h 8.749 c 0.056,0 0.101,0.045 0.101,0.1 v 8.512 c 0,0.055 0.044,0.1 0.1,0.1 h 49.279 c 0.056,0 0.101,-0.045 0.101,-0.1 v -8.512 c 0,-0.055 0.045,-0.1 0.1,-0.1 h 8.66 c 0.056,0 0.1,0.044 0.1,0.1 l 0.037,14.161 c 0.001,0.055 -0.044,0.1 -0.1,0.1 h -15.284 c -0.07,0 -0.094,0.092 -0.036,0.13 2.886,1.904 4.825,3.331 5.323,3.702 0.059,0.044 0.049,0.134 -0.017,0.168 l -9.318,4.754 c -0.052,0.026 -0.116,0.002 -0.138,-0.053 -1.735,-4.198 -3.525,-7.068 -4.544,-8.538 -0.072,-0.104 -0.189,-0.163 -0.315,-0.163 h -4.844 c -0.056,0 -0.1,0.045 -0.1,0.1 v 8.543 c 0,0.056 -0.045,0.1 -0.101,0.1 h -8.839 c -0.056,0 -0.101,-0.044 -0.101,-0.1 v -8.543 c 0,-0.055 -0.044,-0.1 -0.1,-0.1 h -5.671 c -0.072,0 -0.101,0.095 -0.04,0.135 l 2.054,1.354 c 0.054,0.035 0.063,0.111 0.017,0.156 -3.391,3.286 -9.961,6.401 -10.59,6.695 -0.031,0.015 -0.066,0.011 -0.095,-0.008 l -4.715,-3.062 c -0.057,-0.037 -0.06,-0.12 -0.007,-0.163 2.544,-2.071 4.362,-3.784 5.637,-5.107 h -15.303 c -0.055,0 -0.1,-0.045 -0.1,-0.1 v -14.161 c 0,-0.055 0.045,-0.1 0.1,-0.1"
             style="fill:#28c8c8;fill-opacity:1;fill-rule:nonzero;stroke:none"
             id="path266" /><path
             d="m 854.3286,283.9802 c 0,-0.081 -0.065,-0.146 -0.146,-0.146 h -22.856 c -0.081,0 -0.146,0.065 -0.146,0.146 v 2.591 c 0,0.081 0.065,0.147 0.146,0.147 h 22.856 c 0.081,0 0.146,-0.066 0.146,-0.146 z m -31.789,7.142 c -0.081,0 -0.147,-0.066 -0.147,-0.147 v -11.399 c 0,-0.08 0.066,-0.146 0.146,-0.146 h 40.431 c 0.081,0 0.147,0.066 0.147,0.146 v 11.4 c 0,0.08 -0.066,0.146 -0.146,0.146 z"
             style="fill:#28c8c8;fill-opacity:1;fill-rule:nonzero;stroke:none"
             id="path268" /><path
             d="m 838.4965,265.0637 c 0,-0.151 -0.123,-0.274 -0.274,-0.274 h -4.484 c -0.108,0 -0.155,0.138 -0.068,0.204 l 3.314,2.523 c 0.146,0.111 0.141,0.335 -0.008,0.443 -2.367,1.713 -4.097,2.819 -5.297,3.524 -0.1,0.059 -0.057,0.209 0.059,0.209 h 6.484 c 0.151,0 0.274,-0.122 0.274,-0.274 z m -8.724,-0.274 h -4.225 c -0.151,0 -0.274,0.123 -0.274,0.274 v 6.355 c 0,0.152 0.123,0.274 0.274,0.274 h 2.577 c 0.103,0 0.153,-0.127 0.077,-0.196 l -2.067,-1.901 c -0.121,-0.11 -0.117,-0.299 0.006,-0.407 1.386,-1.218 2.762,-2.923 3.725,-4.22 0.056,-0.075 10e-4,-0.179 -0.093,-0.179 m 17.616,6.629 c 0,0.152 0.123,0.274 0.274,0.274 h 4.205 c 0.098,0 0.158,-0.108 0.109,-0.192 -1.764,-3.032 -3.136,-4.895 -3.634,-5.544 -0.105,-0.137 -0.06,-0.333 0.092,-0.412 l 1.008,-0.516 c 0.119,-0.06 0.075,-0.239 -0.057,-0.239 h -1.723 c -0.151,0 -0.274,0.123 -0.274,0.274 z m 8.179,-6.404 c 2.057,1.686 3.496,3.22 3.998,3.776 0.107,0.119 0.088,0.302 -0.04,0.399 l -2.987,2.276 c -0.097,0.074 -0.045,0.227 0.076,0.227 h 3.9 c 0.151,0 0.274,-0.122 0.274,-0.274 v -6.355 c 0,-0.151 -0.123,-0.274 -0.274,-0.274 h -4.869 c -0.119,0 -0.17,0.15 -0.078,0.225 m 22.399,-15.362 h -30.304 c -0.151,0 -0.274,0.123 -0.274,0.274 v 1.785 c 0,0.151 0.123,0.274 0.274,0.274 h 24.741 c 0.152,0 0.274,0.123 0.274,0.274 v 4.398 c 0,0.152 -0.122,0.274 -0.274,0.274 h -24.741 c -0.151,0 -0.274,0.123 -0.274,0.275 v 1.784 c 0,0.152 0.123,0.274 0.274,0.274 h 21.584 c 0.151,0 0.274,0.123 0.274,0.275 v 17.404 c 0,0.151 -0.123,0.274 -0.274,0.274 h -52.431 c -0.151,0 -0.274,-0.123 -0.274,-0.274 v -17.404 c 0,-0.152 0.123,-0.275 0.274,-0.275 h 21.407 c 0.151,0 0.274,-0.122 0.274,-0.274 v -1.785 c 0,-0.151 -0.123,-0.274 -0.274,-0.274 h -24.564 c -0.151,0 -0.274,-0.122 -0.274,-0.274 v -4.398 c 0,-0.151 0.123,-0.274 0.274,-0.274 h 24.564 c 0.151,0 0.274,-0.123 0.274,-0.274 v -1.785 c 0,-0.151 -0.123,-0.274 -0.274,-0.274 h -30.126 c -0.152,0 -0.274,-0.123 -0.274,-0.274 v -4.722 c 0,-0.152 0.122,-0.274 0.274,-0.274 h 9.572 c 0.13,0 0.203,-0.15 0.12,-0.249 -1.234,-1.487 -4.194,-4.741 -9.515,-8.913 -0.181,-0.141 -0.121,-0.43 0.102,-0.483 l 9.835,-2.348 c 0.084,-0.02 0.169,-0.002 0.236,0.052 0.719,0.586 4.967,4.212 6.917,9.68 0.05,0.141 -0.023,0.297 -0.163,0.35 l -4.257,1.614 c -0.159,0.061 -0.116,0.297 0.054,0.297 h 14.15 c 0.171,0 0.213,-0.239 0.052,-0.297 l -3.947,-1.431 c -0.102,-0.037 -0.173,-0.129 -0.18,-0.238 -0.05,-0.727 -0.367,-3.715 -2.356,-9.074 -0.067,-0.179 0.064,-0.372 0.255,-0.372 h 10.374 c 0.146,0 0.266,0.112 0.274,0.258 0.061,1.163 0.195,6.084 -1.531,10.95 -0.035,0.099 0.037,0.204 0.143,0.204 h 10.514 c 0.167,0 0.213,-0.228 0.061,-0.294 l -3.673,-1.591 c -0.144,-0.063 -0.208,-0.23 -0.138,-0.371 0.431,-0.864 1.835,-3.912 2.905,-8.927 0.028,-0.126 0.139,-0.219 0.268,-0.219 h 10.425 c 0.189,0 0.323,0.187 0.259,0.365 -0.434,1.208 -2.155,5.314 -7.079,10.78 -0.089,0.099 -0.022,0.257 0.111,0.257 h 13.117 c 0.132,0 0.181,-0.173 0.07,-0.242 l -3.742,-2.338 c -0.136,-0.085 -0.171,-0.268 -0.074,-0.397 0.697,-0.926 3.26,-4.472 5.038,-8.8 0.048,-0.116 0.168,-0.186 0.293,-0.167 l 10.191,1.523 c 0.198,0.03 0.3,0.253 0.19,0.42 -0.871,1.327 -4.137,6.08 -8.462,9.772 -0.092,0.079 -0.038,0.229 0.083,0.229 h 9.378 c 0.151,0 0.274,0.122 0.274,0.274 v 4.722 c 0,0.151 -0.123,0.274 -0.274,0.274"
             style="fill:#28c8c8;fill-opacity:1;fill-rule:nonzero;stroke:none"
             id="path270" /><path
             d="m 792.2729,272.9162 v 5.602 c 0,0.113 -0.092,0.205 -0.205,0.205 h -62.047 c -0.113,0 -0.205,-0.092 -0.205,-0.205 v -5.602 c 0,-0.113 0.092,-0.205 0.205,-0.205 h 25.694 c 0.114,0 0.205,-0.091 0.205,-0.205 v -39.527 c 0,-0.113 0.092,-0.205 0.205,-0.205 h 9.839 c 0.113,0 0.205,0.092 0.205,0.205 v 39.527 c 0,0.114 0.091,0.205 0.205,0.205 h 25.694 c 0.113,0 0.205,0.092 0.205,0.205"
             style="fill:#28c8c8;fill-opacity:1;fill-rule:nonzero;stroke:none"
             id="path272" /><path
             d="m 739.998,298.7995 c 0,0.171 0.139,0.311 0.311,0.311 h 7.329 c 0.172,0 0.311,-0.14 0.311,-0.311 v -10.004 c 0,-0.172 -0.139,-0.311 -0.311,-0.311 h -7.329 c -0.172,0 -0.311,0.139 -0.311,0.311 z m 16.983,0 c 0,0.171 0.14,0.311 0.311,0.311 h 7.917 c 0.172,0 0.311,-0.14 0.311,-0.311 v -10.004 c 0,-0.172 -0.139,-0.311 -0.311,-0.311 h -7.917 c -0.171,0 -0.311,0.139 -0.311,0.311 z m 17.572,0 c 0,0.171 0.139,0.311 0.311,0.311 h 6.916 c 0.172,0 0.311,-0.14 0.311,-0.311 v -10.004 c 0,-0.172 -0.139,-0.311 -0.311,-0.311 h -6.916 c -0.172,0 -0.311,0.139 -0.311,0.311 z m -44.426,-16.073 h 61.835 c 0.172,0 0.311,0.139 0.311,0.311 v 21.52 c 0,0.171 -0.139,0.31 -0.311,0.31 h -61.835 c -0.171,0 -0.311,-0.139 -0.311,-0.31 v -21.52 c 0,-0.172 0.14,-0.311 0.311,-0.311"
             style="fill:#28c8c8;fill-opacity:1;fill-rule:nonzero;stroke:none"
             id="path274" /><path
             d="m 796.4711,244.0046 c -1.489,0.909 -10.301,6.469 -13.503,12.553 -0.072,0.135 -0.081,0.295 -0.032,0.44 2.126,6.341 2.279,11.87 2.287,12.965 10e-4,0.109 -0.088,0.196 -0.198,0.196 h -8.905 c -0.105,0 -0.191,-0.084 -0.196,-0.189 -0.862,-17.774 -7.629,-25.152 -8.628,-26.149 -0.071,-0.07 -0.075,-0.18 -0.014,-0.258 l 2.718,-3.501 c 0.063,-0.08 0.179,-0.1 0.265,-0.046 3.977,2.51 6.895,5.759 9.039,9.191 0.05,0.079 0.167,0.07 0.201,-0.018 1.252,-3.251 3.893,-8.668 8.822,-13.299 0.079,-0.073 0.202,-0.072 0.278,0.003 l 7.9,7.804 c 0.091,0.09 0.075,0.241 -0.034,0.308"
             style="fill:#28c8c8;fill-opacity:1;fill-rule:nonzero;stroke:none"
             id="path276" /><path
             d="m 744.2338,258.5798 c -0.079,0.172 -0.092,0.371 -0.04,0.554 1.563,5.487 1.69,9.879 1.698,10.832 10e-4,0.107 -0.085,0.193 -0.191,0.193 h -8.912 c -0.104,0 -0.188,-0.084 -0.191,-0.188 -0.411,-19.262 -10.669,-27.983 -12.032,-29.058 -0.082,-0.066 -0.096,-0.184 -0.031,-0.267 l 2.718,-3.499 c 0.059,-0.076 0.166,-0.097 0.249,-0.05 6.379,3.589 10.545,8.569 13.267,13.575 0.044,0.082 0.163,0.063 0.178,-0.029 0.61,-3.731 2.276,-9.048 6.741,-13.46 0.087,-0.086 0.234,-0.07 0.299,0.034 l 5.955,9.373 c 0.056,0.088 0.033,0.202 -0.053,0.26 -0.974,0.653 -6.334,4.481 -9.655,11.73"
             style="fill:#28c8c8;fill-opacity:1;fill-rule:nonzero;stroke:none"
             id="path278" /><path
             d="m 661.894,281.3142 h 13.784 c 0.187,0 0.341,-0.14 0.359,-0.325 0.279,-2.935 0.75,-6.071 1.44,-9.281 0.049,-0.226 -0.121,-0.439 -0.352,-0.439 h -15.231 c -0.2,0 -0.362,0.162 -0.362,0.362 v 9.321 c 0,0.2 0.162,0.362 0.362,0.362 m 0,17.447 h 35.761 c 0.2,0 0.362,-0.161 0.362,-0.362 v -10.711 c 0,-0.2 -0.162,-0.362 -0.362,-0.362 h -35.761 c -0.2,0 -0.362,0.162 -0.362,0.362 v 10.711 c 0,0.201 0.162,0.362 0.362,0.362 m 14.955,-58.22 -1.325,3.278 c -0.067,0.167 -0.245,0.26 -0.421,0.217 -1.258,-0.309 -6.339,-1.457 -13.193,-1.711 -0.205,-0.008 -0.378,0.157 -0.378,0.363 v 22.208 c 0,0.199 0.162,0.361 0.362,0.361 h 16.993 c 0.158,0 0.297,-0.102 0.343,-0.253 4.857,-15.671 15.259,-30.929 34.258,-31.087 0.173,-0.002 0.324,0.12 0.361,0.289 l 1.663,8.15 c 0.053,0.25 -0.159,0.473 -0.41,0.433 -2.522,-0.402 -9.028,-0.22 -13.39,2.712 -4.598,3.089 -9.569,8.719 -12.556,19.293 -0.065,0.231 0.11,0.463 0.349,0.463 h 22.4 c 0.2,0 0.362,0.162 0.362,0.363 v 5.287 c 0,0.2 -0.162,0.362 -0.362,0.362 h -23.902 c -0.177,0 -0.328,0.126 -0.358,0.3 -0.491,2.89 -0.85,6.045 -1.047,9.486 -0.008,0.139 0.101,0.259 0.24,0.259 h 21.589 c 0.2,0 0.359,0.162 0.359,0.362 v 22.723 c 0,0.2 -0.162,0.362 -0.362,0.362 l -56.058,0.012 c -0.2,0 -0.362,-0.162 -0.362,-0.362 v -54.962 c -0.029,-1.952 -0.222,-5.756 -1.269,-6.516 -0.113,-0.082 -0.179,-0.214 -0.159,-0.353 l 1.2,-8.272 c 0.026,-0.178 0.178,-0.309 0.357,-0.31 2.049,-0.013 13.823,0.186 24.554,6.087 0.161,0.088 0.231,0.286 0.162,0.456"
             style="fill:#28c8c8;fill-opacity:1;fill-rule:nonzero;stroke:none"
             id="path280" /><path
             d="m 604.9672,277.9099 c 0,0.098 0.08,0.177 0.177,0.177 h 3.092 c 0.098,0 0.177,-0.079 0.177,-0.177 v -5.992 c 0,-0.098 -0.079,-0.177 -0.177,-0.177 h -3.092 c -0.097,0 -0.177,0.079 -0.177,0.177 z m -6.305,-9.937 c 0,-0.111 0.09,-0.201 0.201,-0.202 l 15.601,-0.013 c 0.111,0 0.202,0.09 0.202,0.202 v 4.736 l 4.001,-3.225 c 0.103,-0.084 0.26,-0.046 0.314,0.075 1.919,4.335 2.13,8.59 2.153,9.473 0.002,0.097 -0.065,0.181 -0.16,0.201 l -3.548,0.742 c -0.094,0.019 -0.185,-0.043 -0.202,-0.138 -0.565,-3.133 -1.979,-5.612 -2.558,-6.531 v 8.562 c 0,0.111 -0.091,0.201 -0.201,0.201 h -15.55 c -0.111,0 -0.201,-0.089 -0.201,-0.2 z"
             style="fill:#28c8c8;fill-opacity:1;fill-rule:nonzero;stroke:none"
             id="path282" /><path
             d="m 598.7148,283.8059 c 0,-0.102 0.083,-0.185 0.185,-0.185 h 15.581 c 0.102,0 0.185,0.083 0.185,0.185 v 3.599 c 0,0.102 -0.083,0.185 -0.185,0.185 h -15.581 c -0.102,0 -0.185,-0.083 -0.185,-0.185 z"
             style="fill:#28c8c8;fill-opacity:1;fill-rule:nonzero;stroke:none"
             id="path284" /><path
             d="m 598.9272,289.7224 h 15.526 c 0.118,0 0.213,0.095 0.213,0.212 v 3.545 c 0,0.117 -0.095,0.212 -0.213,0.212 h -15.526 c -0.117,0 -0.212,-0.095 -0.212,-0.212 v -3.545 c 0,-0.117 0.095,-0.212 0.212,-0.212"
             style="fill:#28c8c8;fill-opacity:1;fill-rule:nonzero;stroke:none"
             id="path286" /><path
             d="m 597.0336,295.1784 h 19.313 c 0.131,0 0.237,0.106 0.237,0.236 v 4.931 c 0,0.13 -0.106,0.236 -0.237,0.236 h -4.966 c -0.054,0 -0.084,0.061 -0.051,0.103 l 1.793,2.29 c 0.084,0.108 0.063,0.265 -0.049,0.343 -3.953,2.723 -10.456,4.624 -11.597,4.944 -0.103,0.029 -0.211,-0.015 -0.266,-0.107 l -1.902,-3.199 c -0.063,-0.106 -0.035,-0.242 0.066,-0.313 1.763,-1.244 3.583,-2.675 5.137,-3.949 0.046,-0.038 0.017,-0.112 -0.043,-0.112 h -7.435 c -0.131,0 -0.237,-0.106 -0.237,-0.236 v -4.931 c 0,-0.13 0.106,-0.236 0.237,-0.236"
             style="fill:#28c8c8;fill-opacity:1;fill-rule:nonzero;stroke:none"
             id="path288" /><path
             d="m 578.1835,266.132 -3.753,0.858 c -0.168,0.038 -0.335,-0.064 -0.379,-0.231 -3.788,-14.407 -10.257,-26.237 -11.38,-28.232 -0.091,-0.161 -0.027,-0.364 0.139,-0.445 l 8.6,-4.145 c 0.173,-0.084 0.382,0.003 0.444,0.186 4.643,13.878 6.347,29.41 6.576,31.667 0.017,0.16 -0.09,0.306 -0.247,0.342"
             style="fill:#28c8c8;fill-opacity:1;fill-rule:nonzero;stroke:none"
             id="path290" /><path
             d="m 574.8276,292.8288 c 0.149,-0.177 0.418,-0.18 0.574,-0.008 l 5.488,6.068 c 0.144,0.159 0.132,0.408 -0.031,0.548 -4.918,4.213 -12.826,6.955 -14.423,7.481 -0.167,0.056 -0.351,-0.012 -0.443,-0.163 l -1.9,-3.081 c -0.102,-0.166 -0.062,-0.382 0.092,-0.501 5.155,-3.978 9.522,-9.014 10.643,-10.344"
             style="fill:#28c8c8;fill-opacity:1;fill-rule:nonzero;stroke:none"
             id="path292" /><path
             d="m 572.8754,272.0349 c 0.127,-0.187 0.395,-0.202 0.545,-0.033 l 5.548,6.248 c 0.119,0.134 0.119,0.337 -0.003,0.468 -4.445,4.783 -12.122,8.415 -13.593,9.085 -0.146,0.067 -0.316,0.024 -0.415,-0.103 -0.465,-0.596 -1.771,-2.271 -2.264,-2.902 -0.109,-0.14 -0.093,-0.337 0.034,-0.46 4.753,-4.58 9.084,-10.75 10.148,-12.303"
             style="fill:#28c8c8;fill-opacity:1;fill-rule:nonzero;stroke:none"
             id="path294" /><path
             d="m 592.2348,250.925 c -0.124,0 -0.216,0.113 -0.193,0.234 l 0.401,2.058 c 0.018,0.092 0.099,0.159 0.193,0.159 h 36.558 c 0.109,0 0.197,0.088 0.197,0.196 v 12.642 c 0,0.108 -0.088,0.196 -0.197,0.196 h -43.568 c -0.108,0 -0.196,-0.088 -0.196,-0.196 v -4.899 c 0,-0.109 0.088,-0.197 0.196,-0.197 h 33.798 c 0.109,0 0.197,-0.088 0.197,-0.196 v -2.058 c 0,-0.108 -0.088,-0.196 -0.197,-0.196 h -35.505 c -0.094,0 -0.175,-0.067 -0.193,-0.159 l -2.461,-12.624 c -0.024,-0.121 0.069,-0.234 0.193,-0.234 l 40.606,-0.018 c 0.123,0 0.217,-0.111 0.194,-0.232 -0.599,-3.231 -1.892,-6.68 -4.687,-6.68 h -27.706 c -0.084,0 -0.158,-0.053 -0.186,-0.132 l -1.678,-4.9 c -0.043,-0.127 0.051,-0.26 0.186,-0.26 h 32.23 c 11.43,0 12.388,15.358 12.464,17.296 0.003,0.11 -0.083,0.2 -0.193,0.2 z"
             style="fill:#28c8c8;fill-opacity:1;fill-rule:nonzero;stroke:none"
             id="path296" /><path
             d="m 581.5551,268.9748 c 1.932,4.324 2.587,8.905 2.72,9.978 0.017,0.134 -0.068,0.256 -0.199,0.288 -0.621,0.149 -2.34,0.561 -2.944,0.705 -0.125,0.03 -0.252,-0.036 -0.303,-0.154 -1.942,-4.444 -4.343,-7.016 -5.142,-7.796 -0.131,-0.127 -0.097,-0.343 0.066,-0.425 1.091,-0.547 4.49,-2.25 5.439,-2.726 0.135,-0.068 0.301,-0.008 0.363,0.13"
             style="fill:#28c8c8;fill-opacity:1;fill-rule:nonzero;stroke:none"
             id="path298" /><path
             d="m 593.9492,279.8376 -2.607,-1.346 c -0.097,-0.05 -0.145,-0.161 -0.114,-0.266 1.021,-3.392 1.989,-7.423 2.263,-8.59 0.038,-0.158 0.224,-0.225 0.355,-0.129 l 4.426,3.22 c 0.092,0.066 0.12,0.191 0.068,0.291 -1.922,3.704 -3.65,6.136 -4.104,6.754 -0.066,0.089 -0.187,0.117 -0.287,0.066"
             style="fill:#28c8c8;fill-opacity:1;fill-rule:nonzero;stroke:none"
             id="path300" /><path
             d="m 579.1782,293.0427 v -3.031 c 0,-0.159 0.13,-0.289 0.29,-0.289 h 5.162 c 0.028,0 0.042,-0.035 0.022,-0.055 -2.54,-2.593 -4.805,-4.195 -5.349,-4.567 -0.08,-0.054 -0.125,-0.142 -0.125,-0.238 v -2.97 c 0,-0.161 0.13,-0.29 0.29,-0.29 h 5.17 c 0.04,0 0.072,-0.032 0.072,-0.072 v -13.483 c 0,-0.16 0.13,-0.29 0.29,-0.29 h 5.434 c 0.161,0 0.29,0.13 0.29,0.29 v 13.483 c 0,0.04 0.032,0.072 0.072,0.072 h 1.799 c 0.043,-0.365 0.073,-0.662 0.093,-0.875 0.018,-0.19 0.213,-0.309 0.391,-0.239 l 4.624,1.821 c 0.131,0.052 0.205,0.193 0.173,0.33 -0.897,3.761 -2.996,6.327 -3.743,7.149 -0.147,0.161 -0.395,0.173 -0.559,0.03 l -2.049,-1.787 c -0.083,-0.072 -0.117,-0.186 -0.089,-0.292 0.252,-0.954 0.457,-1.874 0.623,-2.723 h -5.75 c -0.019,0 -0.025,0.024 -0.009,0.033 2.646,1.613 6.555,4.572 9.908,9.431 0.085,0.124 0.062,0.294 -0.053,0.39 l -4.685,3.901 c -0.146,0.122 -0.366,0.07 -0.446,-0.103 -0.923,-2.012 -2.079,-3.839 -3.305,-5.458 -0.036,-0.047 -0.091,-0.074 -0.15,-0.074 h -3.141 c -0.032,0 -0.05,0.035 -0.027,0.058 0.497,0.5 4.103,4.274 7.667,11.909 0.077,0.164 -0.015,0.361 -0.19,0.406 l -6.639,1.712 c -0.168,0.043 -0.333,-0.07 -0.357,-0.241 -0.991,-7.106 -5.129,-13.045 -5.65,-13.77 -0.035,-0.049 -0.054,-0.108 -0.054,-0.168"
             style="fill:#28c8c8;fill-opacity:1;fill-rule:nonzero;stroke:none"
             id="path302" /><path
             d="m 616.2382,293.073 v -3.155 c 0,-0.108 0.087,-0.196 0.195,-0.196 h 5.001 c 0.123,0 0.184,-0.15 0.097,-0.237 -2.53,-2.55 -4.75,-4.1 -5.207,-4.411 -0.054,-0.036 -0.086,-0.097 -0.086,-0.162 v -3.114 c 0,-0.108 0.087,-0.196 0.195,-0.196 h 5.141 c 0.108,0 0.196,-0.087 0.196,-0.195 v -13.454 c 0,-0.108 0.088,-0.195 0.196,-0.195 h 5.623 c 0.107,0 0.195,0.087 0.195,0.195 v 13.544 c 0,0.058 0.047,0.105 0.105,0.105 h 1.798 c 0.063,0 0.115,-0.049 0.122,-0.111 0.094,-0.88 0.137,-1.566 0.156,-1.916 0.006,-0.128 0.134,-0.213 0.256,-0.172 l 5.079,1.698 c 0.097,0.032 0.154,0.134 0.13,0.232 -1.028,4.385 -3.753,7.838 -4.378,8.587 -0.07,0.084 -0.195,0.093 -0.278,0.022 l -2.225,-1.941 c -0.061,-0.053 -0.082,-0.135 -0.056,-0.21 0.3,-0.844 0.54,-1.739 0.732,-2.618 0.017,-0.08 -0.045,-0.156 -0.127,-0.156 h -5.333 c -0.131,0 -0.181,0.17 -0.071,0.24 2.648,1.661 6.398,4.595 9.623,9.295 0.057,0.084 0.042,0.199 -0.036,0.264 l -4.846,4.035 c -0.098,0.082 -0.247,0.047 -0.3,-0.07 -0.93,-2.055 -2.106,-3.919 -3.354,-5.566 -0.037,-0.05 -0.095,-0.078 -0.157,-0.078 h -2.927 c -0.109,0 -0.166,0.129 -0.09,0.208 0.852,0.894 4.235,4.687 7.569,11.862 0.052,0.111 -0.01,0.244 -0.128,0.275 l -6.852,1.766 c -0.112,0.029 -0.224,-0.048 -0.24,-0.163 -0.976,-7.244 -5.248,-13.299 -5.682,-13.899 -0.025,-0.033 -0.036,-0.071 -0.036,-0.113"
             style="fill:#28c8c8;fill-opacity:1;fill-rule:nonzero;stroke:none"
             id="path304" /><path
             d="m 631.621,279.0764 -3.172,-0.989 c 2.057,-4.922 3.036,-9.129 3.036,-9.129 l 5.626,2.201 c -1.878,4.364 -5.49,7.917 -5.49,7.917"
             style="fill:#28c8c8;fill-opacity:1;fill-rule:nonzero;stroke:none"
             id="path306" /><path
             d="m 535.7441,241.6809 c 0,-0.214 -0.174,-0.388 -0.388,-0.388 h -32.438 c -0.214,0 -0.388,0.174 -0.388,0.388 v 17.469 c 0,0.215 0.174,0.388 0.388,0.388 h 32.438 c 0.214,0 0.388,-0.173 0.388,-0.388 z m 9.343,24.012 h -51.915 c -0.215,0 -0.388,-0.174 -0.388,-0.388 l -0.003,-34.032 c 0,-0.249 0.231,-0.433 0.473,-0.379 l 8.972,2.002 c 0.178,0.039 0.304,0.197 0.304,0.379 v 1.475 c 0,0.215 0.174,0.389 0.388,0.389 h 32.438 c 0.214,0 0.388,-0.174 0.388,-0.389 v -2.848 c 0,-0.215 0.174,-0.388 0.388,-0.388 h 8.972 c 0.215,0 0.389,0.173 0.389,0.388 l -0.018,33.403 c 0,0.214 -0.173,0.388 -0.388,0.388"
             style="fill:#28c8c8;fill-opacity:1;fill-rule:nonzero;stroke:none"
             id="path308" /><path
             d="m 555.8466,272.6828 c -1.232,2.04 -9.977,16.064 -23.271,26.04 -0.119,0.089 -0.287,0.08 -0.396,-0.022 l -3.367,-3.168 c -0.122,-0.115 -0.131,-0.305 -0.017,-0.429 1.067,-1.16 6.155,-6.878 11.678,-16.243 0.121,-0.204 -0.026,-0.465 -0.263,-0.465 h -40.817 c -0.3,0 -0.42,0.385 -0.174,0.558 12.096,8.518 21.059,22.058 22.432,24.196 0.099,0.154 0.042,0.358 -0.122,0.439 l -10.626,5.258 c -0.153,0.075 -0.337,0.01 -0.411,-0.143 -12.014,-24.681 -22.996,-29.886 -23.968,-30.308 h -0.071 v -5.848 c 0,-0.169 0.137,-0.306 0.307,-0.306 h 57.152 c 0.116,0 0.222,-0.064 0.274,-0.167 0.855,-1.688 1.702,-3.454 2.526,-5.303 0.077,-0.172 0.289,-0.236 0.446,-0.133 l 8.593,5.632 c 0.137,0.09 0.18,0.271 0.095,0.412"
             style="fill:#28c8c8;fill-opacity:1;fill-rule:nonzero;stroke:none"
             id="path310" /><path
             d="m 525.7538,193.6648 h 5.752 c 0.114,0 0.206,0.092 0.206,0.205 v 21.723 c 0,0.114 -0.092,0.205 -0.206,0.205 h -5.752 c -0.113,0 -0.205,-0.091 -0.205,-0.205 v -21.723 c 0,-0.113 0.092,-0.205 0.205,-0.205"
             style="fill:#28c8c8;fill-opacity:1;fill-rule:nonzero;stroke:none"
             id="path312" /><path
             d="m 509.5439,202.5217 2.277,6.255 c 0.067,0.184 0.328,0.184 0.395,0 l 2.277,-6.255 c 0.018,-0.051 -0.02,-0.105 -0.074,-0.105 h -4.801 c -0.054,0 -0.093,0.054 -0.074,0.105 m -1.342,13.138 -7.904,-21.713 c -0.05,-0.137 0.052,-0.282 0.198,-0.282 h 5.677 c 0.088,0 0.167,0.055 0.197,0.138 l 2.101,5.77 c 0.03,0.083 0.109,0.138 0.197,0.138 h 6.701 c 0.088,0 0.167,-0.055 0.197,-0.138 l 2.101,-5.77 c 0.03,-0.083 0.108,-0.138 0.197,-0.138 h 4.594 c 0.145,0 0.247,0.145 0.197,0.282 l -7.904,21.713 c -0.03,0.083 -0.109,0.138 -0.197,0.138 h -6.155 c -0.088,0 -0.167,-0.055 -0.197,-0.138"
             style="fill:#28c8c8;fill-opacity:1;fill-rule:nonzero;stroke:none"
             id="path314" /><path
             d="m 574.5624,202.5217 2.277,6.255 c 0.067,0.184 0.327,0.184 0.394,0 l 2.277,-6.255 c 0.019,-0.051 -0.019,-0.105 -0.073,-0.105 h -4.801 c -0.055,0 -0.093,0.054 -0.074,0.105 m -1.343,13.138 -7.903,-21.713 c -0.05,-0.137 0.051,-0.282 0.197,-0.282 h 5.677 c 0.089,0 0.168,0.055 0.198,0.138 l 2.1,5.77 c 0.031,0.083 0.11,0.138 0.198,0.138 h 6.7 c 0.089,0 0.168,-0.055 0.198,-0.138 l 2.1,-5.77 c 0.03,-0.083 0.109,-0.138 0.198,-0.138 h 4.593 c 0.146,0 0.248,0.145 0.197,0.282 l -7.903,21.713 c -0.03,0.083 -0.109,0.138 -0.198,0.138 h -6.154 c -0.088,0 -0.167,-0.055 -0.198,-0.138"
             style="fill:#28c8c8;fill-opacity:1;fill-rule:nonzero;stroke:none"
             id="path316" /><path
             d="m 501.8779,215.842 h -17.226 c -0.12,0 -0.217,-0.097 -0.217,-0.217 v -2.275 c 0,-0.12 0.097,-0.218 0.217,-0.218 h 5.309 c 0.12,0 0.217,-0.097 0.217,-0.218 v -19.031 c 0,-0.121 0.097,-0.218 0.218,-0.218 h 5.727 c 0.12,0 0.217,0.097 0.217,0.218 v 19.031 c 0,0.121 0.098,0.218 0.218,0.218 h 5.32 c 0.12,0 0.218,0.098 0.218,0.218 v 2.275 c 0,0.12 -0.098,0.217 -0.218,0.217"
             style="fill:#28c8c8;fill-opacity:1;fill-rule:nonzero;stroke:none"
             id="path318" /><path
             d="m 562.2646,215.6487 -3.694,-13.982 c -0.035,-0.13 -0.22,-0.13 -0.254,0 l -3.694,13.982 c -0.024,0.088 -0.103,0.149 -0.194,0.149 h -5.882 c -0.091,0 -0.17,-0.061 -0.194,-0.149 l -3.692,-13.978 c -0.035,-0.13 -0.22,-0.13 -0.254,0 l -3.693,13.978 c -0.024,0.088 -0.103,0.149 -0.194,0.149 h -5.756 c -0.132,0 -0.228,-0.125 -0.194,-0.252 l 5.741,-21.731 c 0.024,-0.088 0.103,-0.15 0.194,-0.15 h 6.015 0.002 l -0.001,0.003 3.742,14.163 c 0.035,0.131 0.22,0.131 0.254,0 l 3.704,-14.016 c 0.023,-0.088 0.102,-0.15 0.193,-0.15 h 5.863 c 0.091,0 0.17,0.062 0.193,0.15 l 5.743,21.731 c 0.033,0.127 -0.062,0.252 -0.194,0.252 h -3.56 c -0.091,0 -0.171,-0.061 -0.194,-0.149"
             style="fill:#28c8c8;fill-opacity:1;fill-rule:nonzero;stroke:none"
             id="path320" /><path
             d="m 605.9023,200.7688 -9.617,14.939 c -0.036,0.056 -0.098,0.09 -0.164,0.09 h -5.716 c -0.107,0 -0.194,-0.088 -0.194,-0.195 v -21.743 c 0,-0.108 0.087,-0.195 0.194,-0.195 h 5.041 c 0.107,0 0.195,0.087 0.195,0.195 v 15.676 c 0,0.127 0.165,0.175 0.234,0.069 l 10.204,-15.851 c 0.035,-0.055 0.097,-0.089 0.163,-0.089 h 5.129 c 0.108,0 0.196,0.087 0.196,0.195 v 21.743 c 0,0.107 -0.088,0.195 -0.196,0.195 h -5.04 c -0.108,0 -0.195,-0.088 -0.195,-0.195 v -14.765 c 0,-0.127 -0.165,-0.176 -0.234,-0.069"
             style="fill:#28c8c8;fill-opacity:1;fill-rule:nonzero;stroke:none"
             id="path322" /><path
             d="m 808.6513,202.5217 2.277,6.255 c 0.067,0.184 0.327,0.184 0.395,0 l 2.277,-6.255 c 0.018,-0.051 -0.02,-0.105 -0.074,-0.105 h -4.801 c -0.055,0 -0.093,0.054 -0.074,0.105 m -1.343,13.138 -7.903,-21.713 c -0.05,-0.137 0.051,-0.282 0.197,-0.282 h 5.677 c 0.089,0 0.168,0.055 0.198,0.138 l 2.101,5.77 c 0.03,0.083 0.109,0.138 0.197,0.138 h 6.7 c 0.089,0 0.168,-0.055 0.198,-0.138 l 2.1,-5.77 c 0.03,-0.083 0.109,-0.138 0.198,-0.138 h 4.593 c 0.146,0 0.248,0.145 0.198,0.282 l -7.904,21.713 c -0.03,0.083 -0.109,0.138 -0.198,0.138 h -6.154 c -0.088,0 -0.167,-0.055 -0.198,-0.138"
             style="fill:#28c8c8;fill-opacity:1;fill-rule:nonzero;stroke:none"
             id="path324" /><path
             d="m 860.291,215.842 h -17.226 c -0.12,0 -0.217,-0.097 -0.217,-0.217 v -2.275 c 0,-0.12 0.097,-0.218 0.217,-0.218 h 5.309 c 0.12,0 0.217,-0.097 0.217,-0.218 v -19.031 c 0,-0.121 0.097,-0.218 0.218,-0.218 h 5.727 c 0.12,0 0.217,0.097 0.217,0.218 v 19.031 c 0,0.121 0.098,0.218 0.218,0.218 h 5.32 c 0.12,0 0.218,0.098 0.218,0.218 v 2.275 c 0,0.12 -0.098,0.217 -0.218,0.217"
             style="fill:#28c8c8;fill-opacity:1;fill-rule:nonzero;stroke:none"
             id="path326" /><path
             d="m 790.5761,204.4333 h -0.917 c -0.111,0 -0.2,0.089 -0.2,0.199 v 7.851 c 0,0.11 0.089,0.2 0.2,0.2 h 1.998 c 2.197,0 3.743,-1.706 3.743,-4.239 0,-3.374 -3.009,-4.011 -4.824,-4.011 m 1.081,11.364 h -7.706 c -0.11,0 -0.2,-0.089 -0.2,-0.199 v -21.75 c 0,-0.11 0.09,-0.199 0.2,-0.199 h 5.309 c 0.11,0 0.199,0.089 0.199,0.199 v 7.241 c 0,0.111 0.089,0.2 0.2,0.2 h 0.958 c 2.007,0 10.068,0.062 10.068,7.231 0,7.168 -6.156,7.277 -9.028,7.277"
             style="fill:#28c8c8;fill-opacity:1;fill-rule:nonzero;stroke:none"
             id="path328" /><path
             d="m 831.3027,205.904 h -0.93 c -0.103,0 -0.187,0.083 -0.187,0.187 v 6.405 c 0,0.103 0.084,0.187 0.187,0.187 h 2.011 c 1.852,0 3.293,-0.735 3.293,-3.267 0,-3.374 -3.132,-3.512 -4.374,-3.512 m 5.032,-2.65 c -0.093,0.041 -0.088,0.169 0.008,0.2 2.356,0.77 4.619,2.393 4.619,5.825 0,6.521 -5.706,6.518 -8.578,6.518 l -7.719,0.001 c -0.103,0 -0.187,-0.084 -0.187,-0.187 v -21.775 c 0,-0.103 0.084,-0.187 0.187,-0.187 h 5.334 c 0.103,0 0.187,0.084 0.187,0.187 v 8.737 c 0,0.103 0.084,0.187 0.187,0.187 h 0.971 c 0,0 1.193,0.014 3.432,-3.691 l 3.212,-5.314 c 0.033,-0.056 0.094,-0.09 0.16,-0.09 h 5.279 c 0.148,0 0.237,0.163 0.158,0.287 l -4.063,6.355 c 0,0 -1.244,2.074 -3.187,2.947"
             style="fill:#28c8c8;fill-opacity:1;fill-rule:nonzero;stroke:none"
             id="path330" /><path
             d="m 877.7392,215.6872 -4.452,-9.156 c -0.071,-0.147 -0.281,-0.147 -0.353,0 l -4.452,9.156 c -0.033,0.067 -0.101,0.11 -0.177,0.11 h -5.981 c -0.145,0 -0.24,-0.152 -0.176,-0.282 l 6.865,-14.12 c 0.014,-0.027 0.02,-0.057 0.02,-0.086 v -7.448 c 0,-0.109 0.088,-0.196 0.197,-0.196 h 5.315 c 0.108,0 0.196,0.087 0.196,0.196 v 7.688 c 0,0.03 0.007,0.06 0.02,0.086 l 6.79,13.966 c 0.044,0.091 -0.022,0.196 -0.123,0.196 h -3.512 c -0.075,0 -0.144,-0.043 -0.177,-0.11"
             style="fill:#28c8c8;fill-opacity:1;fill-rule:nonzero;stroke:none"
             id="path332" /><path
             d="m 653.8207,203.1657 h 6.89 c 0.099,0 0.179,0.08 0.179,0.179 v 2.757 c 0,0.099 -0.08,0.179 -0.179,0.179 h -6.89 c -0.099,0 -0.179,0.08 -0.179,0.179 v 6.082 c 0,0.099 0.08,0.179 0.179,0.179 h 7.79 c 0.099,0 0.179,0.08 0.179,0.179 v 2.763 c 0,0.099 -0.08,0.179 -0.179,0.179 l -13.468,-0.044 c -0.098,0 -0.178,-0.08 -0.178,-0.178 v -21.776 c 0,-0.099 0.08,-0.179 0.179,-0.179 l 13.638,-0.016 c 0.099,0 0.179,0.08 0.179,0.179 v 2.757 c 0,0.099 -0.08,0.179 -0.179,0.179 h -7.961 c -0.099,0 -0.179,0.08 -0.179,0.179 v 6.044 c 0,0.099 0.08,0.179 0.179,0.179"
             style="fill:#28c8c8;fill-opacity:1;fill-rule:nonzero;stroke:none"
             id="path334" /><path
             d="m 715.2685,215.7976 h -5.215 c -0.128,0 -0.231,-0.103 -0.231,-0.23 v -21.672 c 0,-0.127 0.103,-0.231 0.231,-0.231 h 3.518 v -0.015 h 9.924 c 0.127,0 0.23,0.103 0.23,0.23 v 2.653 c 0,0.128 -0.103,0.231 -0.23,0.231 h -7.766 c -0.127,0 -0.23,0.104 -0.23,0.231 v 18.573 c 0,0.127 -0.104,0.23 -0.231,0.23"
             style="fill:#28c8c8;fill-opacity:1;fill-rule:nonzero;stroke:none"
             id="path336" /><path
             d="m 675.3935,196.7639 c -3.706,0 -5.595,4.021 -5.595,7.967 0,3.947 1.971,7.952 5.595,7.952 3.871,0 5.595,-4.005 5.595,-7.952 0,-3.946 -1.669,-7.967 -5.595,-7.967 m 0,19.404 c -6.643,0 -11.204,-5.124 -11.204,-11.445 0,-6.32 4.005,-11.444 11.204,-11.444 6.637,0 11.204,5.124 11.204,11.444 0,6.321 -3.97,11.445 -11.204,11.445"
             style="fill:#28c8c8;fill-opacity:1;fill-rule:nonzero;stroke:none"
             id="path338" /><path
             d="m 634.5439,204.4333 h -0.917 c -0.11,0 -0.2,0.089 -0.2,0.199 v 7.851 c 0,0.11 0.09,0.2 0.2,0.2 h 1.998 c 2.198,0 3.744,-1.706 3.744,-4.239 0,-3.374 -3.01,-4.011 -4.825,-4.011 m 1.081,11.364 h -7.706 c -0.11,0 -0.2,-0.089 -0.2,-0.199 v -21.75 c 0,-0.11 0.09,-0.199 0.2,-0.199 h 5.309 c 0.11,0 0.199,0.089 0.199,0.199 v 7.241 c 0,0.111 0.09,0.2 0.2,0.2 h 0.959 c 2.007,0 10.067,0.062 10.067,7.231 0,7.168 -6.156,7.277 -9.028,7.277"
             style="fill:#28c8c8;fill-opacity:1;fill-rule:nonzero;stroke:none"
             id="path340" /><path
             d="m 732.6279,203.1657 h 6.89 c 0.099,0 0.179,0.08 0.179,0.179 v 2.757 c 0,0.099 -0.08,0.179 -0.179,0.179 h -6.89 c -0.099,0 -0.179,0.08 -0.179,0.179 v 6.082 c 0,0.099 0.08,0.179 0.179,0.179 h 7.79 c 0.099,0 0.179,0.08 0.179,0.179 v 2.763 c 0,0.099 -0.08,0.179 -0.179,0.179 l -13.468,-0.044 c -0.098,0 -0.178,-0.08 -0.178,-0.178 v -21.776 c 0,-0.099 0.08,-0.179 0.179,-0.179 l 13.638,-0.016 c 0.099,0 0.179,0.08 0.179,0.179 v 2.757 c 0,0.099 -0.08,0.179 -0.179,0.179 h -7.961 c -0.099,0 -0.179,0.08 -0.179,0.179 v 6.044 c 0,0.099 0.08,0.179 0.179,0.179"
             style="fill:#28c8c8;fill-opacity:1;fill-rule:nonzero;stroke:none"
             id="path342" /><path
             d="m 696.4223,204.4333 h -0.917 c -0.11,0 -0.2,0.089 -0.2,0.199 v 7.851 c 0,0.11 0.09,0.2 0.2,0.2 h 1.998 c 2.197,0 3.743,-1.706 3.743,-4.239 0,-3.374 -3.009,-4.011 -4.824,-4.011 m 1.081,11.364 h -7.706 c -0.11,0 -0.2,-0.089 -0.2,-0.199 v -21.75 c 0,-0.11 0.09,-0.199 0.2,-0.199 h 5.309 c 0.11,0 0.199,0.089 0.199,0.199 v 7.241 c 0,0.111 0.09,0.2 0.2,0.2 h 0.958 c 2.007,0 10.068,0.062 10.068,7.231 0,7.168 -6.156,7.277 -9.028,7.277"
             style="fill:#28c8c8;fill-opacity:1;fill-rule:nonzero;stroke:none"
             id="path344" /><path
             d="m 743.8354,209.4695 h 2.615 c 0.083,0 0.158,0.047 0.195,0.122 l 3.174,6.512 c 0.049,0.101 -0.025,0.219 -0.137,0.219 h -5.085 c -0.109,0 -0.202,-0.082 -0.215,-0.191 l -0.762,-6.42 c -0.015,-0.129 0.085,-0.242 0.215,-0.242"
             style="fill:#28c8c8;fill-opacity:1;fill-rule:nonzero;stroke:none"
             id="path346" /><path
             d="m 760.852,205.7209 c -2.768,1.09 -4.228,2.468 -4.228,4.64 0,1.42 1.205,2.192 3.72,2.192 2.045,0 4.366,-1.293 5.075,-1.736 0.077,-0.048 0.173,0.008 0.173,0.098 v 3.859 c 0,0.08 -0.045,0.154 -0.118,0.187 -1.585,0.712 -4.228,1.207 -5.982,1.207 -2.276,0 -8.476,-0.065 -8.476,-5.815 0,-3.232 1.669,-5.113 5.501,-6.955 2.798,-1.277 4.8,-2.39 4.8,-4.133 0,-2.183 -2.007,-2.752 -3.751,-2.752 -2.717,0 -4.911,1.5 -5.913,2.306 -0.074,0.06 -0.184,0.006 -0.184,-0.091 v -4.07 c 0,-0.086 0.052,-0.164 0.134,-0.192 3.212,-1.11 15.323,-3.23 15.323,5.034 0,3.299 -2.965,4.996 -6.074,6.221"
             style="fill:#28c8c8;fill-opacity:1;fill-rule:nonzero;stroke:none"
             id="path348" /></g></g></g></g></svg>
